<?xml version="1.0" encoding="iso-8859-1"?>
<!-- Uploaded to: SVG Repo, www.svgrepo.com, Generator: SVG Repo Mixer Tools -->
<svg version="1.1" id="Layer_1" xmlns="http://www.w3.org/2000/svg" xmlns:xlink="http://www.w3.org/1999/xlink" 
	 viewBox="0 0 512 512" xml:space="preserve">
<polygon style="fill:#F7B239;" points="393.167,153.597 256,137.784 244.748,142.358 139.108,137.784 118.82,137.784 
	69.554,153.597 0,153.597 0,198.042 32.848,198.042 32.848,458.864 61.827,458.864 61.827,375.785 450.173,375.785 450.173,458.864 
	479.152,458.864 479.152,198.042 512,198.042 512,153.597 "/>
<path style="fill:#E6E6E6;" d="M285.539,109.165c-14.668,0-27.14,9.366-31.776,22.449c-4.944-13.118-17.6-22.449-32.451-22.449
	h-82.203v44.432h112.718h4.161h133.006v-44.432H285.539z"/>
<g>
	<polygon style="fill:#E09B2D;" points="15.917,153.597 24.445,153.597 31.834,153.597 31.834,198.042 29.792,198.042 
		27.989,198.042 3.845,198.042 2.043,198.042 0,198.042 0,153.597 4.324,153.597 7.387,153.597 8.65,153.597 15.916,153.597 	"/>
	<rect x="32.848" y="198.042" style="fill:#E09B2D;" width="446.303" height="28.24"/>
</g>
<line style="fill:none;stroke:#333333;stroke-width:15;stroke-linejoin:round;stroke-miterlimit:10;" x1="255.987" y1="153.597" x2="256" y2="153.597"/>
<g>
	<rect x="434.005" y="208.913" style="fill:#E09B2D;" width="16.173" height="166.872"/>
	<rect x="61.827" y="208.913" style="fill:#E09B2D;" width="16.173" height="166.872"/>
</g>
<path style="fill:#666666;" d="M131.578,141.96h263.873c3.213,0,5.82,2.605,5.82,5.82l0,0c0,3.213-2.605,5.82-5.82,5.82H131.578
	c-3.213,0-5.82-2.605-5.82-5.82l0,0C125.758,144.564,128.363,141.96,131.578,141.96z"/>
<path style="fill:#E54728;" d="M74.563,136.91H61.326c-18.12,0-32.861-14.747-32.861-32.874v-1.34
	c0-18.126,14.741-32.873,32.861-32.873h13.237v18.785H61.326c-7.762,0-14.076,6.32-14.076,14.089v1.34
	c0,7.768,6.314,14.089,14.076,14.089h13.237V136.91z"/>
<path style="fill:#F95428;" d="M139.108,109.165v44.432H118.82H69.554V122.69V74.388v-14.64c0-3.652,2.96-6.612,6.612-6.612h56.33
	c3.652,0,6.612,2.96,6.612,6.612V109.165z"/>
<path style="fill:#E54728;" d="M94.024,109.165v44.432h-7.137H69.554V122.69V74.388v-14.64c0-3.652,2.96-6.612,6.612-6.612h17.858
	V109.165z"/>
</svg>